<svg width="360" height="247" viewBox="0 0 360 247" fill="none" xmlns="http://www.w3.org/2000/svg">
    <rect y="42" width="360" height="205" fill="#3E3E3E"/>
    <path d="M15.8988 220.539C15.8988 219.89 15.9793 219.372 16.1405 218.986C16.3016 218.601 16.619 218.178 17.0926 217.719C17.5711 217.255 17.8739 216.926 18.0008 216.73C18.1961 216.433 18.2938 216.11 18.2938 215.764C18.2938 215.305 18.179 214.956 17.9496 214.716C17.7249 214.472 17.3929 214.35 16.9535 214.35C16.5335 214.35 16.1942 214.47 15.9354 214.709C15.6815 214.943 15.5545 215.263 15.5545 215.668H13.7747C13.7845 214.804 14.0775 214.121 14.6537 213.618C15.2347 213.115 16.0013 212.863 16.9535 212.863C17.9349 212.863 18.6991 213.112 19.2459 213.61C19.7977 214.108 20.0736 214.804 20.0736 215.698C20.0736 216.494 19.7025 217.277 18.9603 218.049L18.0594 218.935C17.7372 219.301 17.5711 219.836 17.5614 220.539H15.8988ZM15.7743 222.817C15.7743 222.529 15.8646 222.297 16.0453 222.121C16.2259 221.94 16.4701 221.85 16.7777 221.85C17.0902 221.85 17.3368 221.943 17.5174 222.128C17.6981 222.309 17.7884 222.539 17.7884 222.817C17.7884 223.085 17.7005 223.31 17.5247 223.491C17.349 223.671 17.0999 223.762 16.7777 223.762C16.4554 223.762 16.2064 223.671 16.0306 223.491C15.8597 223.31 15.7743 223.085 15.7743 222.817Z"
          fill="#FFFFFF"/>
    <path d="M26.3979 223.674H24.6254V215.112L22.0107 216.005V214.504L26.1708 212.973H26.3979V223.674Z" fill="#FFFFFF"/>
    <path d="M37.2744 223.674H30.1039V222.451L33.6562 218.576C34.1689 218.005 34.5327 217.529 34.7475 217.148C34.9672 216.762 35.0771 216.376 35.0771 215.991C35.0771 215.483 34.9331 215.073 34.645 214.76C34.3618 214.448 33.9785 214.292 33.4951 214.292C32.9189 214.292 32.4721 214.467 32.1547 214.819C31.8373 215.17 31.6787 215.651 31.6787 216.262H29.8989C29.8989 215.612 30.0454 215.029 30.3383 214.511C30.6362 213.989 31.0585 213.583 31.6054 213.295C32.1572 213.007 32.7919 212.863 33.5097 212.863C34.5449 212.863 35.3603 213.125 35.956 213.647C36.5566 214.165 36.8569 214.882 36.8569 215.8C36.8569 216.333 36.7055 216.892 36.4028 217.478C36.1049 218.059 35.6142 218.72 34.9306 219.462L32.3232 222.253H37.2744V223.674Z"
          fill="#FFFFFF"/>
    <path d="M40.6874 217.529H41.7714C42.3183 217.524 42.7504 217.382 43.0678 217.104C43.3901 216.826 43.5512 216.423 43.5512 215.896C43.5512 215.388 43.4169 214.995 43.1484 214.716C42.8847 214.433 42.4794 214.292 41.9326 214.292C41.454 214.292 41.061 214.431 40.7534 214.709C40.4457 214.982 40.2919 215.341 40.2919 215.786H38.5122C38.5122 215.239 38.6562 214.741 38.9443 214.292C39.2372 213.842 39.6425 213.493 40.1601 213.244C40.6826 212.99 41.2661 212.863 41.9106 212.863C42.975 212.863 43.81 213.132 44.4155 213.669C45.0258 214.201 45.331 214.943 45.331 215.896C45.331 216.374 45.1772 216.826 44.8696 217.25C44.5668 217.67 44.1738 217.988 43.6904 218.203C44.2763 218.403 44.7206 218.718 45.0234 219.147C45.331 219.577 45.4848 220.09 45.4848 220.686C45.4848 221.643 45.1552 222.404 44.496 222.971C43.8417 223.537 42.9799 223.82 41.9106 223.82C40.8852 223.82 40.0454 223.547 39.3911 223C38.7368 222.453 38.4096 221.726 38.4096 220.817H40.1894C40.1894 221.286 40.3456 221.667 40.6581 221.96C40.9755 222.253 41.4003 222.399 41.9326 222.399C42.4843 222.399 42.9189 222.253 43.2363 221.96C43.5537 221.667 43.7123 221.242 43.7123 220.686C43.7123 220.124 43.5463 219.692 43.2143 219.389C42.8823 219.086 42.3891 218.935 41.7348 218.935H40.6874V217.529Z"
          fill="#FFFFFF"/>
    <path d="M286.011 224.634C286.011 224.297 286.123 224.023 286.348 223.813C286.577 223.604 286.863 223.499 287.205 223.499C287.552 223.499 287.837 223.604 288.062 223.813C288.291 224.023 288.406 224.297 288.406 224.634C288.406 224.966 288.294 225.237 288.069 225.447C287.845 225.652 287.556 225.754 287.205 225.754C286.858 225.754 286.573 225.652 286.348 225.447C286.123 225.237 286.011 224.966 286.011 224.634Z"
          fill="#FFFFFF"/>
    <path d="M41.1647 125.674C41.0449 125.434 40.9476 125.007 40.8727 124.394C39.9069 125.397 38.7539 125.898 37.4137 125.898C36.2158 125.898 35.2313 125.562 34.4601 124.888C33.6964 124.206 33.3146 123.345 33.3146 122.305C33.3146 121.039 33.7938 120.059 34.7521 119.362C35.7179 118.659 37.0731 118.307 38.8175 118.307H40.839V117.352C40.839 116.626 40.6219 116.049 40.1876 115.623C39.7534 115.188 39.1133 114.971 38.2672 114.971C37.526 114.971 36.9046 115.158 36.403 115.533C35.9013 115.907 35.6505 116.36 35.6505 116.892H33.5617C33.5617 116.285 33.775 115.701 34.2018 115.14C34.636 114.571 35.22 114.121 35.9538 113.792C36.695 113.463 37.5073 113.298 38.3908 113.298C39.7908 113.298 40.8877 113.65 41.6813 114.354C42.4749 115.05 42.8867 116.012 42.9166 117.24V122.833C42.9166 123.948 43.0589 124.835 43.3434 125.494V125.674H41.1647ZM37.7169 124.09C38.3683 124.09 38.986 123.922 39.57 123.585C40.1539 123.248 40.577 122.81 40.839 122.271V119.778H39.2106C36.665 119.778 35.3922 120.523 35.3922 122.013C35.3922 122.664 35.6094 123.173 36.0436 123.54C36.4778 123.907 37.0356 124.09 37.7169 124.09Z"
          fill="#FFFFFF"/>
    <path d="M76.5636 122.451C76.5636 121.889 76.3502 121.455 75.9235 121.148C75.5042 120.833 74.7667 120.564 73.7111 120.339C72.6629 120.115 71.8281 119.845 71.2067 119.531C70.5928 119.216 70.136 118.842 69.8366 118.408C69.5446 117.973 69.3986 117.457 69.3986 116.858C69.3986 115.862 69.8178 115.02 70.6564 114.331C71.5024 113.642 72.5805 113.298 73.8908 113.298C75.2684 113.298 76.3839 113.653 77.2374 114.365C78.0984 115.076 78.5289 115.986 78.5289 117.094H76.4401C76.4401 116.525 76.1968 116.034 75.7101 115.623C75.2309 115.211 74.6245 115.005 73.8908 115.005C73.1346 115.005 72.5431 115.17 72.1164 115.499C71.6896 115.828 71.4762 116.259 71.4762 116.791C71.4762 117.292 71.6746 117.67 72.0714 117.925C72.4682 118.179 73.1832 118.423 74.2164 118.655C75.2571 118.887 76.0994 119.164 76.7433 119.486C77.3872 119.808 77.8626 120.197 78.1696 120.654C78.484 121.103 78.6413 121.653 78.6413 122.305C78.6413 123.39 78.207 124.263 77.3385 124.921C76.47 125.573 75.3432 125.898 73.9581 125.898C72.9848 125.898 72.1238 125.726 71.3751 125.382C70.6264 125.037 70.0387 124.558 69.612 123.944C69.1927 123.323 68.9831 122.653 68.9831 121.934H71.0607C71.0981 122.63 71.3751 123.184 71.8917 123.596C72.4158 124 73.1046 124.203 73.9581 124.203C74.7443 124.203 75.3732 124.045 75.8449 123.731C76.324 123.409 76.5636 122.982 76.5636 122.451Z"
          fill="#FFFFFF"/>
    <path d="M71.6671 173.978H78.776V175.674H69.129V174.146L75.8336 165.241H69.2301V163.522H78.4391V164.994L71.6671 173.978Z"
          fill="#FFFFFF"/>
    <path d="M71.4533 226.895H69.9005L75.838 211.455H77.381L71.4533 226.895Z" fill="#FFFFFF"/>
    <path d="M109.29 167.958L111.985 163.522H114.411L110.435 169.531L114.534 175.674H112.131L109.323 171.125L106.516 175.674H104.101L108.2 169.531L104.225 163.522H106.628L109.29 167.958Z"
          fill="#FFFFFF"/>
    <path d="M144.773 174.203C145.514 174.203 146.161 173.978 146.715 173.529C147.27 173.08 147.576 172.518 147.636 171.844H149.602C149.564 172.541 149.325 173.203 148.883 173.832C148.441 174.461 147.85 174.963 147.109 175.337C146.375 175.711 145.596 175.898 144.773 175.898C143.118 175.898 141.8 175.348 140.819 174.248C139.846 173.139 139.36 171.627 139.36 169.71V169.362C139.36 168.179 139.577 167.127 140.011 166.207C140.445 165.286 141.067 164.571 141.875 164.062C142.691 163.552 143.653 163.298 144.761 163.298C146.124 163.298 147.255 163.706 148.153 164.522C149.059 165.338 149.542 166.397 149.602 167.7H147.636C147.576 166.914 147.277 166.27 146.738 165.769C146.206 165.259 145.548 165.005 144.761 165.005C143.706 165.005 142.886 165.387 142.302 166.15C141.725 166.907 141.437 168.003 141.437 169.441V169.834C141.437 171.234 141.725 172.312 142.302 173.068C142.878 173.825 143.702 174.203 144.773 174.203Z"
          fill="#FFFFFF"/>
    <path d="M179.857 172.855L182.867 163.522H184.989L180.632 175.674H179.048L174.646 163.522H176.769L179.857 172.855Z"
          fill="#FFFFFF"/>
    <path d="M221.248 169.733C221.248 171.59 220.821 173.083 219.967 174.214C219.114 175.337 217.968 175.898 216.531 175.898C214.996 175.898 213.809 175.356 212.971 174.27L212.87 175.674H210.961V158.424H213.038V164.859C213.877 163.818 215.034 163.298 216.508 163.298C217.983 163.298 219.14 163.856 219.979 164.971C220.825 166.087 221.248 167.614 221.248 169.553V169.733ZM219.17 169.497C219.17 168.082 218.897 166.989 218.35 166.218C217.804 165.447 217.018 165.061 215.992 165.061C214.622 165.061 213.637 165.697 213.038 166.97V172.226C213.675 173.499 214.667 174.135 216.014 174.135C217.01 174.135 217.785 173.75 218.339 172.979C218.893 172.207 219.17 171.047 219.17 169.497Z"
          fill="#FFFFFF"/>
    <path d="M280.787 163.522L280.843 164.87C281.734 163.822 282.936 163.298 284.448 163.298C286.148 163.298 287.305 163.949 287.919 165.252C288.323 164.668 288.847 164.196 289.491 163.837C290.142 163.478 290.91 163.298 291.793 163.298C294.458 163.298 295.814 164.709 295.859 167.532V175.674H293.781V167.655C293.781 166.787 293.583 166.139 293.186 165.712C292.789 165.278 292.123 165.061 291.187 165.061C290.416 165.061 289.775 165.293 289.266 165.757C288.757 166.214 288.461 166.832 288.379 167.61V175.674H286.29V167.711C286.29 165.944 285.425 165.061 283.696 165.061C282.333 165.061 281.401 165.641 280.9 166.802V175.674H278.822V163.522H280.787Z"
          fill="#FFFFFF"/>
    <path d="M249.038 163.522L249.106 165.05C250.034 163.882 251.247 163.298 252.744 163.298C255.312 163.298 256.608 164.747 256.63 167.644V175.674H254.552V167.633C254.545 166.757 254.343 166.109 253.946 165.69C253.557 165.271 252.946 165.061 252.115 165.061C251.442 165.061 250.85 165.241 250.341 165.6C249.832 165.959 249.435 166.431 249.151 167.015V175.674H247.073V163.522H249.038Z"
          fill="#FFFFFF"/>
    <path d="M103.922 119.497C103.922 117.633 104.363 116.135 105.247 115.005C106.13 113.867 107.287 113.298 108.717 113.298C110.139 113.298 111.266 113.785 112.097 114.758V108.424H114.175V125.674H112.266L112.165 124.371C111.334 125.389 110.177 125.898 108.694 125.898C107.287 125.898 106.138 125.322 105.247 124.169C104.363 123.016 103.922 121.511 103.922 119.654V119.497ZM105.999 119.733C105.999 121.111 106.284 122.189 106.853 122.967C107.422 123.746 108.208 124.135 109.211 124.135C110.529 124.135 111.491 123.544 112.097 122.361V116.779C111.476 115.634 110.521 115.061 109.234 115.061C108.215 115.061 107.422 115.454 106.853 116.24C106.284 117.026 105.999 118.191 105.999 119.733Z"
          fill="#FFFFFF"/>
    <path d="M142.651 125.674V115.128H140.731V113.522H142.651V112.276C142.651 110.973 142.999 109.966 143.695 109.255C144.392 108.544 145.376 108.188 146.649 108.188C147.128 108.188 147.604 108.252 148.075 108.379L147.963 110.063C147.611 109.996 147.237 109.962 146.84 109.962C146.166 109.962 145.646 110.161 145.279 110.558C144.912 110.947 144.729 111.508 144.729 112.242V113.522H147.323V115.128H144.729V125.674H142.651Z"
          fill="#FFFFFF"/>
    <path d="M174.966 119.497C174.966 117.603 175.404 116.098 176.28 114.982C177.156 113.859 178.317 113.298 179.762 113.298C181.244 113.298 182.401 113.822 183.232 114.87L183.333 113.522H185.231V125.382C185.231 126.954 184.763 128.193 183.827 129.099C182.899 130.005 181.649 130.458 180.076 130.458C179.2 130.458 178.343 130.271 177.505 129.896C176.666 129.522 176.026 129.009 175.584 128.358L176.662 127.111C177.553 128.212 178.643 128.762 179.93 128.762C180.941 128.762 181.727 128.478 182.289 127.909C182.858 127.34 183.142 126.539 183.142 125.505V124.461C182.311 125.419 181.177 125.898 179.739 125.898C178.317 125.898 177.164 125.326 176.28 124.18C175.404 123.035 174.966 121.474 174.966 119.497ZM177.055 119.733C177.055 121.103 177.336 122.181 177.898 122.967C178.459 123.746 179.245 124.135 180.256 124.135C181.566 124.135 182.528 123.54 183.142 122.35V116.802C182.506 115.641 181.551 115.061 180.278 115.061C179.268 115.061 178.478 115.454 177.909 116.24C177.34 117.026 177.055 118.191 177.055 119.733Z"
          fill="#FFFFFF"/>
    <path d="M213.339 114.994C214.259 113.863 215.457 113.298 216.932 113.298C219.5 113.298 220.796 114.747 220.818 117.644V125.674H218.74V117.633C218.733 116.757 218.531 116.109 218.134 115.69C217.745 115.271 217.134 115.061 216.303 115.061C215.63 115.061 215.038 115.241 214.529 115.6C214.02 115.959 213.623 116.431 213.339 117.015V125.674H211.261V108.424H213.339V114.994Z"
          fill="#FFFFFF"/>
    <path d="M253.87 113.522V127.078C253.87 129.414 252.811 130.582 250.692 130.582C250.235 130.582 249.812 130.514 249.423 130.379V128.717C249.663 128.777 249.977 128.807 250.366 128.807C250.831 128.807 251.182 128.68 251.422 128.425C251.669 128.178 251.793 127.744 251.793 127.123V113.522H253.87ZM251.579 110.299C251.579 109.97 251.68 109.689 251.882 109.457C252.092 109.217 252.395 109.098 252.792 109.098C253.196 109.098 253.503 109.214 253.713 109.446C253.923 109.678 254.027 109.962 254.027 110.299C254.027 110.636 253.923 110.917 253.713 111.142C253.503 111.366 253.196 111.479 252.792 111.479C252.388 111.479 252.085 111.366 251.882 111.142C251.68 110.917 251.579 110.636 251.579 110.299Z"
          fill="#FFFFFF"/>
    <path d="M285.981 120.047L284.678 121.406V125.674H282.601V108.424H284.678V118.857L285.79 117.521L289.575 113.522H292.102L287.374 118.599L292.652 125.674H290.215L285.981 120.047Z"
          fill="#FFFFFF"/>
    <path d="M323.879 125.674H321.801V108.424H323.879V125.674Z" fill="#FFFFFF"/>
    <path d="M15.3766 68.4971C15.3766 66.5879 15.8146 65.0793 16.6906 63.9712C17.5665 62.8556 18.742 62.2979 20.2169 62.2979C21.6544 62.2979 22.7887 62.7808 23.6198 63.7466L23.7096 62.5225H25.6188V79.3457H23.5412V73.5508C22.7026 74.4492 21.5871 74.8984 20.1945 74.8984C18.727 74.8984 17.5553 74.3294 16.6793 73.1914C15.8109 72.0459 15.3766 70.5298 15.3766 68.6431V68.4971ZM17.4542 68.7329C17.4542 70.1255 17.7462 71.2186 18.3302 72.0122C18.9217 72.8058 19.7153 73.2026 20.7111 73.2026C21.9464 73.2026 22.8898 72.6561 23.5412 71.563V65.6108C22.8823 64.5402 21.9464 64.0049 20.7335 64.0049C19.7303 64.0049 18.9329 64.4054 18.3414 65.2065C17.75 66.0002 17.4542 67.1756 17.4542 68.7329Z"
          fill="#FFFFFF"/>
    <path d="M59.5294 71.8101L61.8654 62.5225H63.943L60.4054 74.6738H58.7208L55.7672 65.4648L52.8922 74.6738H51.2077L47.6813 62.5225H49.7477L52.1398 71.6191L54.9699 62.5225H56.6432L59.5294 71.8101Z"
          fill="#FFFFFF"/>
    <path d="M91.8624 74.8984C90.2153 74.8984 88.8751 74.3594 87.8419 73.2812C86.8087 72.1956 86.2921 70.7469 86.2921 68.9351V68.5532C86.2921 67.3478 86.5205 66.2734 86.9772 65.3301C87.4414 64.3792 88.0853 63.638 88.9088 63.1064C89.7399 62.5674 90.6383 62.2979 91.6041 62.2979C93.1839 62.2979 94.4118 62.8182 95.2877 63.8589C96.1637 64.8996 96.6017 66.3895 96.6017 68.3286V69.1934H88.3698C88.3997 70.3913 88.7479 71.3608 89.4142 72.1021C90.088 72.8358 90.9415 73.2026 91.9747 73.2026C92.7085 73.2026 93.3299 73.0529 93.839 72.7534C94.3481 72.4539 94.7936 72.0571 95.1754 71.563L96.4445 72.5513C95.4262 74.116 93.8989 74.8984 91.8624 74.8984ZM91.6041 64.0049C90.7656 64.0049 90.0618 64.3118 89.4928 64.9258C88.9238 65.5322 88.5719 66.3857 88.4371 67.4863H94.5241V67.3291C94.4642 66.2734 94.1797 65.4574 93.6705 64.8809C93.1614 64.2969 92.4726 64.0049 91.6041 64.0049Z"
          fill="#FFFFFF"/>
    <path d="M129.895 64.3867C129.58 64.3343 129.24 64.3081 128.873 64.3081C127.51 64.3081 126.585 64.8883 126.099 66.0488V74.6738H124.021V62.5225H126.043L126.076 63.9263C126.758 62.8407 127.723 62.2979 128.974 62.2979C129.378 62.2979 129.685 62.3503 129.895 62.4551V64.3867Z"
          fill="#FFFFFF"/>
    <path d="M163.475 59.5801V62.5225H165.743V64.1284H163.475V71.6641C163.475 72.1507 163.576 72.5176 163.778 72.7646C163.98 73.0042 164.325 73.124 164.811 73.124C165.051 73.124 165.38 73.0791 165.799 72.9893V74.6738C165.253 74.8236 164.721 74.8984 164.205 74.8984C163.276 74.8984 162.576 74.6177 162.105 74.0562C161.633 73.4946 161.397 72.6973 161.397 71.6641V64.1284H159.185V62.5225H161.397V59.5801H163.475Z"
          fill="#FFFFFF"/>
    <path d="M198.447 71.6304L201.277 62.5225H203.501L198.615 76.5493C197.859 78.5708 196.658 79.5815 195.01 79.5815L194.617 79.5479L193.842 79.4019V77.7173L194.404 77.7622C195.108 77.7622 195.654 77.62 196.044 77.3354C196.44 77.0509 196.766 76.5306 197.021 75.7744L197.481 74.5391L193.146 62.5225H195.415L198.447 71.6304Z"
          fill="#FFFFFF"/>
    <path d="M236.575 73.4722C235.766 74.423 234.58 74.8984 233.015 74.8984C231.72 74.8984 230.731 74.5241 230.05 73.7754C229.376 73.0192 229.035 71.9036 229.028 70.4287V62.5225H231.106V70.3726C231.106 72.2144 231.854 73.1353 233.352 73.1353C234.939 73.1353 235.995 72.5438 236.519 71.3608V62.5225H238.596V74.6738H236.62L236.575 73.4722Z"
          fill="#FFFFFF"/>
    <path d="M270.879 74.6738H268.801V62.5225H270.879V74.6738ZM268.633 59.2993C268.633 58.9624 268.734 58.6779 268.936 58.4458C269.146 58.2137 269.453 58.0977 269.857 58.0977C270.261 58.0977 270.568 58.2137 270.778 58.4458C270.988 58.6779 271.092 58.9624 271.092 59.2993C271.092 59.6362 270.988 59.917 270.778 60.1416C270.568 60.3662 270.261 60.4785 269.857 60.4785C269.453 60.4785 269.146 60.3662 268.936 60.1416C268.734 59.917 268.633 59.6362 268.633 59.2993Z"
          fill="#FFFFFF"/>
    <path d="M299.809 68.4858C299.809 67.2954 300.041 66.2248 300.506 65.2739C300.977 64.3231 301.629 63.5894 302.46 63.0728C303.298 62.5562 304.253 62.2979 305.323 62.2979C306.978 62.2979 308.314 62.8706 309.333 64.0161C310.358 65.1616 310.871 66.6852 310.871 68.5869V68.7329C310.871 69.9159 310.643 70.979 310.186 71.9224C309.737 72.8582 309.089 73.5882 308.243 74.1123C307.405 74.6364 306.439 74.8984 305.346 74.8984C303.699 74.8984 302.362 74.3257 301.337 73.1802C300.318 72.0347 299.809 70.5186 299.809 68.6318V68.4858ZM301.898 68.7329C301.898 70.0806 302.209 71.1624 302.83 71.9785C303.459 72.7946 304.298 73.2026 305.346 73.2026C306.402 73.2026 307.24 72.7909 307.861 71.9673C308.483 71.1362 308.794 69.9757 308.794 68.4858C308.794 67.1532 308.475 66.075 307.839 65.2515C307.21 64.4204 306.372 64.0049 305.323 64.0049C304.298 64.0049 303.47 64.4129 302.841 65.229C302.213 66.0451 301.898 67.2131 301.898 68.7329Z"
          fill="#FFFFFF"/>
    <path d="M346.225 68.7329C346.225 70.5822 345.802 72.0721 344.956 73.2026C344.11 74.3332 342.965 74.8984 341.52 74.8984C340.045 74.8984 338.884 74.4305 338.038 73.4946V79.3457H335.961V62.5225H337.859L337.96 63.8701C338.806 62.8219 339.981 62.2979 341.486 62.2979C342.946 62.2979 344.099 62.8481 344.945 63.9487C345.798 65.0493 346.225 66.5804 346.225 68.542V68.7329ZM344.148 68.4971C344.148 67.127 343.856 66.0451 343.272 65.2515C342.688 64.4578 341.887 64.061 340.868 64.061C339.611 64.061 338.667 64.6188 338.038 65.7344V71.5405C338.66 72.6486 339.611 73.2026 340.891 73.2026C341.887 73.2026 342.676 72.8096 343.26 72.0234C343.852 71.2298 344.148 70.0544 344.148 68.4971Z"
          fill="#FFFFFF"/>
    <path d="M31.04 58H29.6289V52.5605L27.9443 53.083V51.9355L30.8887 50.8809H31.04V58Z" fill="#BEC2C4"/>
    <path d="M67.9854 58H63.1123V57.0332L65.4121 54.582C65.7279 54.237 65.9606 53.9359 66.1104 53.6787C66.2633 53.4215 66.3398 53.1774 66.3398 52.9463C66.3398 52.6305 66.2601 52.3831 66.1006 52.2041C65.9411 52.0218 65.7132 51.9307 65.417 51.9307C65.098 51.9307 64.8457 52.0413 64.6602 52.2627C64.4779 52.4808 64.3867 52.7689 64.3867 53.127H62.9707C62.9707 52.694 63.0732 52.2985 63.2783 51.9404C63.4867 51.5824 63.7796 51.3024 64.1572 51.1006C64.5348 50.8955 64.9629 50.793 65.4414 50.793C66.1738 50.793 66.7419 50.9688 67.1455 51.3203C67.5524 51.6719 67.7559 52.1683 67.7559 52.8096C67.7559 53.1611 67.6647 53.5192 67.4824 53.8838C67.3001 54.2484 66.9876 54.6732 66.5449 55.1582L64.9287 56.8623H67.9854V58Z"
          fill="#BEC2C4"/>
    <path d="M100.048 53.8203H100.8C101.158 53.8203 101.423 53.7308 101.596 53.5518C101.768 53.3727 101.854 53.1351 101.854 52.8389C101.854 52.5524 101.768 52.3294 101.596 52.1699C101.426 52.0104 101.192 51.9307 100.893 51.9307C100.622 51.9307 100.396 52.0055 100.214 52.1553C100.032 52.3018 99.9404 52.4938 99.9404 52.7314H98.5293C98.5293 52.3604 98.6286 52.0283 98.8271 51.7354C99.029 51.4391 99.3089 51.208 99.667 51.042C100.028 50.876 100.425 50.793 100.858 50.793C101.61 50.793 102.2 50.9736 102.626 51.335C103.052 51.693 103.266 52.1878 103.266 52.8193C103.266 53.1449 103.166 53.4443 102.968 53.7178C102.769 53.9912 102.509 54.2012 102.187 54.3477C102.587 54.4909 102.885 54.7057 103.08 54.9922C103.279 55.2786 103.378 55.6172 103.378 56.0078C103.378 56.6393 103.147 57.1455 102.685 57.5264C102.226 57.9072 101.617 58.0977 100.858 58.0977C100.149 58.0977 99.5677 57.9105 99.1152 57.5361C98.666 57.1618 98.4414 56.667 98.4414 56.0518H99.8525C99.8525 56.3187 99.9518 56.5368 100.15 56.7061C100.352 56.8753 100.6 56.96 100.893 56.96C101.228 56.96 101.49 56.8721 101.679 56.6963C101.871 56.5173 101.967 56.2812 101.967 55.9883C101.967 55.2786 101.576 54.9238 100.795 54.9238H100.048V53.8203Z"
          fill="#BEC2C4"/>
    <path d="M138.787 55.3242H139.593V56.4619H138.787V58H137.376V56.4619H134.461L134.397 55.5732L137.361 50.8906H138.787V55.3242ZM135.804 55.3242H137.376V52.8145L137.283 52.9756L135.804 55.3242Z"
          fill="#BEC2C4"/>
    <path d="M170.322 54.5039L170.732 50.8906H174.717V52.0674H171.89L171.714 53.5957C172.049 53.4167 172.406 53.3271 172.783 53.3271C173.46 53.3271 173.991 53.5371 174.375 53.957C174.759 54.377 174.951 54.9645 174.951 55.7197C174.951 56.1787 174.854 56.5905 174.658 56.9551C174.466 57.3164 174.189 57.598 173.828 57.7998C173.467 57.9984 173.04 58.0977 172.549 58.0977C172.119 58.0977 171.72 58.0114 171.353 57.8389C170.985 57.6631 170.693 57.4173 170.479 57.1016C170.267 56.7858 170.155 56.4261 170.142 56.0225H171.538C171.567 56.3187 171.67 56.5498 171.846 56.7158C172.025 56.8786 172.257 56.96 172.544 56.96C172.863 56.96 173.109 56.846 173.281 56.6182C173.454 56.387 173.54 56.0615 173.54 55.6416C173.54 55.238 173.441 54.9287 173.242 54.7139C173.044 54.499 172.762 54.3916 172.397 54.3916C172.062 54.3916 171.79 54.4795 171.582 54.6553L171.445 54.7822L170.322 54.5039Z"
          fill="#BEC2C4"/>
    <path d="M209.94 50.8174V51.9795H209.804C209.166 51.9893 208.651 52.1553 208.261 52.4775C207.873 52.7998 207.641 53.2474 207.562 53.8203C207.94 53.4362 208.417 53.2441 208.993 53.2441C209.612 53.2441 210.103 53.4655 210.468 53.9082C210.832 54.3509 211.015 54.9336 211.015 55.6562C211.015 56.1185 210.914 56.5368 210.712 56.9111C210.513 57.2855 210.23 57.5768 209.862 57.7852C209.498 57.9935 209.084 58.0977 208.622 58.0977C207.873 58.0977 207.268 57.8372 206.806 57.3164C206.347 56.7956 206.117 56.1006 206.117 55.2314V54.7236C206.117 53.9521 206.262 53.2718 206.552 52.6826C206.845 52.0902 207.263 51.6328 207.807 51.3105C208.354 50.985 208.987 50.8206 209.706 50.8174H209.94ZM208.563 54.377C208.336 54.377 208.129 54.4372 207.943 54.5576C207.758 54.6748 207.621 54.8311 207.533 55.0264V55.4561C207.533 55.9281 207.626 56.2975 207.812 56.5645C207.997 56.8281 208.257 56.96 208.593 56.96C208.896 56.96 209.14 56.8411 209.325 56.6035C209.514 56.3626 209.608 56.0518 209.608 55.6709C209.608 55.2835 209.514 54.971 209.325 54.7334C209.136 54.4958 208.882 54.377 208.563 54.377Z"
          fill="#BEC2C4"/>
    <path d="M246.446 51.6816L243.697 58H242.208L244.962 52.0332H241.427V50.8906H246.446V51.6816Z" fill="#BEC2C4"/>
    <path d="M281.746 52.7803C281.746 53.1253 281.66 53.4313 281.487 53.6982C281.315 53.9652 281.077 54.1784 280.774 54.3379C281.119 54.5039 281.393 54.7334 281.595 55.0264C281.797 55.3161 281.897 55.6579 281.897 56.0518C281.897 56.6833 281.683 57.1829 281.253 57.5508C280.823 57.9154 280.239 58.0977 279.5 58.0977C278.761 58.0977 278.175 57.9137 277.742 57.5459C277.309 57.1781 277.093 56.68 277.093 56.0518C277.093 55.6579 277.194 55.3145 277.396 55.0215C277.597 54.7285 277.869 54.5007 278.211 54.3379C277.908 54.1784 277.671 53.9652 277.498 53.6982C277.329 53.4313 277.244 53.1253 277.244 52.7803C277.244 52.1748 277.446 51.693 277.85 51.335C278.253 50.9736 278.802 50.793 279.495 50.793C280.185 50.793 280.732 50.972 281.136 51.3301C281.543 51.6849 281.746 52.1683 281.746 52.7803ZM280.481 55.9492C280.481 55.64 280.392 55.3926 280.213 55.207C280.034 55.0215 279.793 54.9287 279.49 54.9287C279.191 54.9287 278.951 55.0215 278.772 55.207C278.593 55.3893 278.504 55.6367 278.504 55.9492C278.504 56.252 278.592 56.4961 278.768 56.6816C278.943 56.8672 279.188 56.96 279.5 56.96C279.806 56.96 280.045 56.8704 280.218 56.6914C280.394 56.5124 280.481 56.265 280.481 55.9492ZM280.335 52.8486C280.335 52.5719 280.262 52.3506 280.115 52.1846C279.969 52.0153 279.762 51.9307 279.495 51.9307C279.231 51.9307 279.026 52.012 278.88 52.1748C278.733 52.3376 278.66 52.5622 278.66 52.8486C278.66 53.1318 278.733 53.3597 278.88 53.5322C279.026 53.7048 279.233 53.791 279.5 53.791C279.767 53.791 279.972 53.7048 280.115 53.5322C280.262 53.3597 280.335 53.1318 280.335 52.8486Z"
          fill="#BEC2C4"/>
    <path d="M315.913 55.1582C315.545 55.5195 315.116 55.7002 314.624 55.7002C313.996 55.7002 313.493 55.4854 313.115 55.0557C312.738 54.6227 312.549 54.04 312.549 53.3076C312.549 52.8421 312.65 52.4157 312.852 52.0283C313.057 51.6377 313.341 51.335 313.706 51.1201C314.071 50.902 314.481 50.793 314.937 50.793C315.405 50.793 315.822 50.9102 316.187 51.1445C316.551 51.3789 316.834 51.7158 317.036 52.1553C317.238 52.5947 317.34 53.0977 317.344 53.6641V54.1865C317.344 55.3714 317.049 56.3024 316.46 56.9795C315.871 57.6566 315.036 58.0179 313.955 58.0635L313.608 58.0684V56.8916L313.921 56.8867C315.148 56.8314 315.812 56.2552 315.913 55.1582ZM314.971 54.6211C315.199 54.6211 315.394 54.5625 315.557 54.4453C315.723 54.3281 315.848 54.1865 315.933 54.0205V53.4395C315.933 52.9609 315.841 52.5898 315.659 52.3262C315.477 52.0625 315.233 51.9307 314.927 51.9307C314.644 51.9307 314.411 52.0609 314.229 52.3213C314.046 52.5785 313.955 52.9023 313.955 53.293C313.955 53.6803 314.043 53.9993 314.219 54.25C314.398 54.4974 314.648 54.6211 314.971 54.6211Z"
          fill="#BEC2C4"/>
    <path d="M353.397 55.0605C353.397 56.0436 353.194 56.7956 352.787 57.3164C352.38 57.8372 351.785 58.0977 351 58.0977C350.225 58.0977 349.633 57.8421 349.223 57.3311C348.812 56.82 348.603 56.0876 348.593 55.1338V53.8252C348.593 52.8324 348.798 52.0788 349.208 51.5645C349.621 51.0501 350.215 50.793 350.99 50.793C351.765 50.793 352.357 51.0485 352.768 51.5596C353.178 52.0674 353.388 52.7982 353.397 53.752V55.0605ZM351.986 53.625C351.986 53.0358 351.905 52.6077 351.742 52.3408C351.583 52.0706 351.332 51.9355 350.99 51.9355C350.658 51.9355 350.412 52.0641 350.253 52.3213C350.097 52.5752 350.014 52.974 350.004 53.5176V55.2461C350.004 55.8255 350.082 56.2568 350.238 56.54C350.398 56.82 350.652 56.96 351 56.96C351.345 56.96 351.594 56.8249 351.747 56.5547C351.9 56.2845 351.98 55.8711 351.986 55.3145V53.625Z"
          fill="#BEC2C4"/>
    <path fill-rule="evenodd" clip-rule="evenodd"
          d="M328.707 167.293C329.098 166.902 329.731 166.902 330.121 167.293L336.707 173.879C337.098 174.269 337.098 174.902 336.707 175.293C336.317 175.683 335.683 175.683 335.293 175.293L328.707 168.707C328.317 168.316 328.317 167.683 328.707 167.293Z"
          fill="#BEC2C4"/>
    <path fill-rule="evenodd" clip-rule="evenodd"
          d="M336.293 167.293C335.902 166.902 335.269 166.902 334.879 167.293L328.293 173.879C327.902 174.269 327.902 174.902 328.293 175.293C328.683 175.683 329.317 175.683 329.707 175.293L336.293 168.707C336.683 168.316 336.683 167.683 336.293 167.293Z"
          fill="#BEC2C4"/>
    <path fill-rule="evenodd" clip-rule="evenodd"
          d="M325.585 163L320.385 171L325.585 179H340C340.552 179 341 178.552 341 178V164C341 163.448 340.552 163 340 163H325.585ZM324.5 181L318 171L324.5 161H340C341.657 161 343 162.343 343 164V178C343 179.657 341.657 181 340 181H324.5Z"
          fill="#BEC2C4"/>
    <rect opacity="0.15" x="136" y="207" width="123" height="23" rx="3" fill="#BEC2C4"/>
    <path d="M35.0556 172H34.0556V173V178C34.0556 178.552 33.6079 179 33.0556 179H25C24.4477 179 24 178.552 24 178V173V172H23H19.707C18.8248 172 18.3748 170.941 18.9871 170.306L28.5253 160.414L38.7438 170.281C39.3908 170.905 38.9486 172 38.0492 172H35.0556Z"
          stroke="#BEC2C4" stroke-width="2" stroke-linecap="round"/>
    <path d="M104.531 220.016C105.312 221.328 106.469 221.984 108 221.984C109.531 221.984 110.688 221.328 111.469 220.016H113.109C112.703 221.047 112.031 221.891 111.094 222.547C110.188 223.172 109.156 223.484 108 223.484C106.844 223.484 105.797 223.172 104.859 222.547C103.953 221.891 103.297 221.047 102.891 220.016H104.531ZM102.328 223.672C103.922 225.234 105.812 226.016 108 226.016C110.188 226.016 112.062 225.234 113.625 223.672C115.219 222.078 116.016 220.188 116.016 218C116.016 215.812 115.219 213.938 113.625 212.375C112.062 210.781 110.188 209.984 108 209.984C105.812 209.984 103.922 210.781 102.328 212.375C100.766 213.938 99.9844 215.812 99.9844 218C99.9844 220.188 100.766 222.078 102.328 223.672ZM100.922 210.969C102.891 209 105.25 208.016 108 208.016C110.75 208.016 113.094 209 115.031 210.969C117 212.906 117.984 215.25 117.984 218C117.984 220.75 117 223.109 115.031 225.078C113.094 227.016 110.75 227.984 108 227.984C105.25 227.984 102.891 227.016 100.922 225.078C98.9844 223.109 98.0156 220.75 98.0156 218C98.0156 215.25 98.9844 212.906 100.922 210.969ZM103.406 216.594C103.125 216.281 102.984 215.922 102.984 215.516C102.984 215.109 103.125 214.766 103.406 214.484C103.719 214.172 104.078 214.016 104.484 214.016C104.891 214.016 105.234 214.172 105.516 214.484C105.828 214.766 105.984 215.109 105.984 215.516C105.984 215.922 105.828 216.281 105.516 216.594C105.234 216.875 104.891 217.016 104.484 217.016C104.078 217.016 103.719 216.875 103.406 216.594ZM110.438 216.594C110.156 216.281 110.016 215.922 110.016 215.516C110.016 215.109 110.156 214.766 110.438 214.484C110.75 214.172 111.109 214.016 111.516 214.016C111.922 214.016 112.266 214.172 112.547 214.484C112.859 214.766 113.016 215.109 113.016 215.516C113.016 215.922 112.859 216.281 112.547 216.594C112.266 216.875 111.922 217.016 111.516 217.016C111.109 217.016 110.75 216.875 110.438 216.594Z"
          fill="#BEC2C4"/>
    <rect x="309" y="203" width="43.1171" height="30.2994" rx="5" fill="#0094FF"/>
    <path d="M337.984 212.984H340V218.984H324.812L328.422 222.594L327.016 224L321.016 218L327.016 212L328.422 213.406L324.812 217.016H337.984V212.984Z"
          fill="#FFFFFF"/>
    <rect width="360" height="44" fill="#333333"/>
    <circle cx="23" cy="22" r="15" fill="#FFFFFF"/>
    <path d="M346 24C347.66 24 348.99 22.66 348.99 21L349 15C349 13.34 347.66 12 346 12C344.34 12 343 13.34 343 15V21C343 22.66 344.34 24 346 24ZM351.3 21C351.3 24 348.76 26.1 346 26.1C343.24 26.1 340.7 24 340.7 21H339C339 24.42 341.72 27.23 345 27.72V31H347V27.72C350.28 27.24 353 24.42 353 21H351.3Z"
          fill="#BEC2C4"/>
    <path d="M106.009 22.8232H103.003V28H101.307V15.2031H105.543C106.984 15.2031 108.092 15.5312 108.865 16.1875C109.645 16.8438 110.034 17.7988 110.034 19.0527C110.034 19.8496 109.817 20.5439 109.384 21.1357C108.956 21.7275 108.358 22.1699 107.591 22.4629L110.597 27.8945V28H108.786L106.009 22.8232ZM103.003 21.4434H105.596C106.434 21.4434 107.099 21.2266 107.591 20.793C108.089 20.3594 108.338 19.7793 108.338 19.0527C108.338 18.2617 108.101 17.6553 107.626 17.2334C107.157 16.8115 106.478 16.5977 105.587 16.5918H103.003V21.4434Z"
          fill="#FFFFFF"/>
    <path d="M120.203 23.3506C120.203 24.8037 119.869 25.9727 119.201 26.8574C118.533 27.7363 117.637 28.1758 116.512 28.1758C115.311 28.1758 114.382 27.751 113.726 26.9014L113.646 28H112.152V14.5H113.778V19.5361C114.435 18.7217 115.34 18.3145 116.494 18.3145C117.648 18.3145 118.554 18.751 119.21 19.624C119.872 20.4971 120.203 21.6924 120.203 23.21V23.3506ZM118.577 23.166C118.577 22.0586 118.363 21.2031 117.936 20.5996C117.508 19.9961 116.893 19.6943 116.09 19.6943C115.018 19.6943 114.247 20.1924 113.778 21.1885V25.3018C114.276 26.2979 115.053 26.7959 116.107 26.7959C116.887 26.7959 117.493 26.4941 117.927 25.8906C118.36 25.2871 118.577 24.3789 118.577 23.166Z"
          fill="#FFFFFF"/>
    <path d="M121.829 23.1572C121.829 22.2256 122.011 21.3877 122.374 20.6436C122.743 19.8994 123.253 19.3252 123.903 18.9209C124.56 18.5166 125.307 18.3145 126.145 18.3145C127.439 18.3145 128.485 18.7627 129.282 19.6592C130.085 20.5557 130.486 21.748 130.486 23.2363V23.3506C130.486 24.2764 130.308 25.1084 129.95 25.8467C129.599 26.5791 129.092 27.1504 128.43 27.5605C127.773 27.9707 127.018 28.1758 126.162 28.1758C124.873 28.1758 123.827 27.7275 123.024 26.8311C122.228 25.9346 121.829 24.748 121.829 23.2715V23.1572ZM123.464 23.3506C123.464 24.4053 123.707 25.252 124.193 25.8906C124.686 26.5293 125.342 26.8486 126.162 26.8486C126.988 26.8486 127.645 26.5264 128.131 25.8818C128.617 25.2314 128.86 24.3232 128.86 23.1572C128.86 22.1143 128.611 21.2705 128.113 20.626C127.621 19.9756 126.965 19.6504 126.145 19.6504C125.342 19.6504 124.694 19.9697 124.202 20.6084C123.71 21.2471 123.464 22.1611 123.464 23.3506Z"
          fill="#FFFFFF"/>
    <path d="M138.396 28C138.303 27.8125 138.227 27.4785 138.168 26.998C137.412 27.7832 136.51 28.1758 135.461 28.1758C134.523 28.1758 133.753 27.9121 133.149 27.3848C132.552 26.8516 132.253 26.1777 132.253 25.3633C132.253 24.373 132.628 23.6055 133.378 23.0605C134.134 22.5098 135.194 22.2344 136.56 22.2344H138.142V21.4873C138.142 20.9189 137.972 20.4678 137.632 20.1338C137.292 19.7939 136.791 19.624 136.129 19.624C135.549 19.624 135.062 19.7705 134.67 20.0635C134.277 20.3564 134.081 20.7109 134.081 21.127H132.446C132.446 20.6523 132.613 20.1953 132.947 19.7559C133.287 19.3105 133.744 18.959 134.318 18.7012C134.898 18.4434 135.534 18.3145 136.226 18.3145C137.321 18.3145 138.18 18.5898 138.801 19.1406C139.422 19.6855 139.744 20.4385 139.768 21.3994V25.7764C139.768 26.6494 139.879 27.3438 140.102 27.8594V28H138.396ZM135.698 26.7607C136.208 26.7607 136.691 26.6289 137.148 26.3652C137.605 26.1016 137.937 25.7588 138.142 25.3369V23.3857H136.867C134.875 23.3857 133.879 23.9688 133.879 25.1348C133.879 25.6445 134.049 26.043 134.389 26.3301C134.729 26.6172 135.165 26.7607 135.698 26.7607Z"
          fill="#FFFFFF"/>
    <path d="M146.913 19.9492C146.667 19.9082 146.4 19.8877 146.113 19.8877C145.047 19.8877 144.323 20.3418 143.942 21.25V28H142.316V18.4902H143.898L143.925 19.5889C144.458 18.7393 145.214 18.3145 146.192 18.3145C146.509 18.3145 146.749 18.3555 146.913 18.4375V19.9492Z"
          fill="#FFFFFF"/>
    <path d="M147.845 23.166C147.845 21.707 148.19 20.5352 148.882 19.6504C149.573 18.7598 150.479 18.3145 151.598 18.3145C152.711 18.3145 153.593 18.6953 154.243 19.457V14.5H155.869V28H154.375L154.296 26.9805C153.646 27.7773 152.74 28.1758 151.58 28.1758C150.479 28.1758 149.579 27.7246 148.882 26.8223C148.19 25.9199 147.845 24.7422 147.845 23.2891V23.166ZM149.471 23.3506C149.471 24.4287 149.693 25.2725 150.139 25.8818C150.584 26.4912 151.199 26.7959 151.984 26.7959C153.016 26.7959 153.769 26.333 154.243 25.4072V21.0391C153.757 20.1426 153.01 19.6943 152.002 19.6943C151.205 19.6943 150.584 20.002 150.139 20.6172C149.693 21.2324 149.471 22.1436 149.471 23.3506Z"
          fill="#FFFFFF"/>
    <path d="M223.562 16.5918H219.449V28H217.771V16.5918H213.666V15.2031H223.562V16.5918Z" fill="#FFFFFF"/>
    <path d="M226.832 19.6416C227.553 18.7568 228.49 18.3145 229.645 18.3145C231.654 18.3145 232.668 19.4482 232.686 21.7158V28H231.06V21.707C231.054 21.0215 230.896 20.5146 230.585 20.1865C230.28 19.8584 229.803 19.6943 229.152 19.6943C228.625 19.6943 228.162 19.835 227.764 20.1162C227.365 20.3975 227.055 20.7666 226.832 21.2236V28H225.206V14.5H226.832V19.6416Z"
          fill="#FFFFFF"/>
    <path d="M239.066 28.1758C237.777 28.1758 236.729 27.7539 235.92 26.9102C235.111 26.0605 234.707 24.9268 234.707 23.5088V23.21C234.707 22.2666 234.886 21.4258 235.243 20.6875C235.606 19.9434 236.11 19.3633 236.755 18.9473C237.405 18.5254 238.108 18.3145 238.864 18.3145C240.101 18.3145 241.062 18.7217 241.747 19.5361C242.433 20.3506 242.775 21.5166 242.775 23.0342V23.7109H236.333C236.356 24.6484 236.629 25.4072 237.15 25.9873C237.678 26.5615 238.346 26.8486 239.154 26.8486C239.729 26.8486 240.215 26.7314 240.613 26.4971C241.012 26.2627 241.36 25.9521 241.659 25.5654L242.652 26.3389C241.855 27.5635 240.66 28.1758 239.066 28.1758ZM238.864 19.6504C238.208 19.6504 237.657 19.8906 237.212 20.3711C236.767 20.8457 236.491 21.5137 236.386 22.375H241.149V22.252C241.103 21.4258 240.88 20.7871 240.481 20.3359C240.083 19.8789 239.544 19.6504 238.864 19.6504Z"
          fill="#FFFFFF"/>
    <path d="M246.194 18.4902L246.238 19.5449C246.936 18.7246 247.876 18.3145 249.06 18.3145C250.39 18.3145 251.295 18.8242 251.775 19.8438C252.092 19.3867 252.502 19.0176 253.006 18.7363C253.516 18.4551 254.116 18.3145 254.808 18.3145C256.894 18.3145 257.954 19.4189 257.989 21.6279V28H256.363V21.7246C256.363 21.0449 256.208 20.5381 255.897 20.2041C255.587 19.8643 255.065 19.6943 254.333 19.6943C253.729 19.6943 253.229 19.876 252.83 20.2393C252.432 20.5967 252.2 21.0801 252.136 21.6895V28H250.501V21.7686C250.501 20.3857 249.824 19.6943 248.471 19.6943C247.404 19.6943 246.675 20.1484 246.282 21.0566V28H244.656V18.4902H246.194Z"
          fill="#FFFFFF"/>
    <path d="M264.396 28.1758C263.107 28.1758 262.059 27.7539 261.25 26.9102C260.441 26.0605 260.037 24.9268 260.037 23.5088V23.21C260.037 22.2666 260.216 21.4258 260.573 20.6875C260.937 19.9434 261.44 19.3633 262.085 18.9473C262.735 18.5254 263.438 18.3145 264.194 18.3145C265.431 18.3145 266.392 18.7217 267.077 19.5361C267.763 20.3506 268.105 21.5166 268.105 23.0342V23.7109H261.663C261.687 24.6484 261.959 25.4072 262.48 25.9873C263.008 26.5615 263.676 26.8486 264.484 26.8486C265.059 26.8486 265.545 26.7314 265.943 26.4971C266.342 26.2627 266.69 25.9521 266.989 25.5654L267.982 26.3389C267.186 27.5635 265.99 28.1758 264.396 28.1758ZM264.194 19.6504C263.538 19.6504 262.987 19.8906 262.542 20.3711C262.097 20.8457 261.821 21.5137 261.716 22.375H266.479V22.252C266.433 21.4258 266.21 20.7871 265.812 20.3359C265.413 19.8789 264.874 19.6504 264.194 19.6504Z"
          fill="#FFFFFF"/>
    <rect x="184" y="10" width="1" height="25" fill="#4D4D4D"/>
    <path d="M23 32C17.49 32 13 27.51 13 22C13 16.49 17.49 12 23 12C28.51 12 33 16.04 33 21C33 24.31 30.31 27 27 27H25.23C24.95 27 24.73 27.22 24.73 27.5C24.73 27.62 24.78 27.73 24.86 27.83C25.27 28.3 25.5 28.89 25.5 29.5C25.5 30.88 24.38 32 23 32V32ZM23 14C18.59 14 15 17.59 15 22C15 26.41 18.59 30 23 30C23.28 30 23.5 29.78 23.5 29.5C23.5 29.34 23.42 29.22 23.36 29.15C22.95 28.69 22.73 28.1 22.73 27.5C22.73 26.12 23.85 25 25.23 25H27C29.21 25 31 23.21 31 21C31 17.14 27.41 14 23 14Z"
          fill="#878787"/>
    <path d="M17.5 23C18.3284 23 19 22.3284 19 21.5C19 20.6716 18.3284 20 17.5 20C16.6716 20 16 20.6716 16 21.5C16 22.3284 16.6716 23 17.5 23Z"
          fill="#878787"/>
    <path d="M20.5 19C21.3284 19 22 18.3284 22 17.5C22 16.6716 21.3284 16 20.5 16C19.6716 16 19 16.6716 19 17.5C19 18.3284 19.6716 19 20.5 19Z"
          fill="#878787"/>
    <path d="M25.5 19C26.3284 19 27 18.3284 27 17.5C27 16.6716 26.3284 16 25.5 16C24.6716 16 24 16.6716 24 17.5C24 18.3284 24.6716 19 25.5 19Z"
          fill="#878787"/>
    <path d="M28.5 23C29.3284 23 30 22.3284 30 21.5C30 20.6716 29.3284 20 28.5 20C27.6716 20 27 20.6716 27 21.5C27 22.3284 27.6716 23 28.5 23Z"
          fill="#878787"/>
</svg>
